<?xml version="1.0" encoding="utf-8"?>
<!-- Generator: Adobe Illustrator 19.2.1, SVG Export Plug-In . SVG Version: 6.00 Build 0)  -->
<svg version="1.1" id="Layer_1" xmlns="http://www.w3.org/2000/svg" xmlns:xlink="http://www.w3.org/1999/xlink" x="0px" y="0px"
	 viewBox="0 0 100 100" style="enable-background:new 0 0 100 100;" xml:space="preserve">
<style type="text/css">
	.st0{fill:#3083D3;}
</style>
<path class="st0" d="M97.5,52.1H87.1v45.3c0,1.3-0.8,2-2.1,2H64.5c-1.3,0-2.1-0.8-2.1-2v-35H37.6v35c0,1.3-0.8,2-2.1,2H15
	c-1.3,0-2.1-0.8-2.1-2V52.1H2.5c-0.8,0-1.6-0.3-1.8-1.3c-0.5-0.8-0.2-1.6,0.5-2.3L48.6,0.9c0.8-0.8,2.3-0.8,3,0l47.5,47.5
	c0.7,0.7,0.7,1.5,0.5,2.3C99.4,51.6,98.3,52.1,97.5,52.1z"/>
</svg>
